<?xml version="1.0" standalone="no"?><!DOCTYPE svg PUBLIC "-//W3C//DTD SVG 1.1//EN" "http://www.w3.org/Graphics/SVG/1.1/DTD/svg11.dtd"><svg class="icon" width="200px" height="200.00px" viewBox="0 0 1024 1024" version="1.1" xmlns="http://www.w3.org/2000/svg"><path d="M76.8 87.04m40.96 0l783.36 0q40.96 0 40.96 40.96l0 184.32q0 40.96-40.96 40.96l-783.36 0q-40.96 0-40.96-40.96l0-184.32q0-40.96 40.96-40.96Z" fill="#5459F6" /><path d="M901.12 87.04a40.96 40.96 0 0 1 40.96 40.96v184.32a40.96 40.96 0 0 1-40.96 40.96H117.76a40.96 40.96 0 0 1-40.96-40.96V128a40.96 40.96 0 0 1 40.96-40.96h783.36z m0 30.72H117.76a10.24 10.24 0 0 0-10.2144 9.472L107.52 128v184.32a10.24 10.24 0 0 0 9.472 10.2144L117.76 322.56h783.36a10.24 10.24 0 0 0 10.2144-9.472L911.36 312.32V128a10.24 10.24 0 0 0-9.472-10.2144L901.12 117.76z" fill="#000000" /><path d="M901.12 87.04a40.96 40.96 0 0 1 40.96 40.96v184.32a40.96 40.96 0 0 1-40.96 40.96H117.76a40.96 40.96 0 0 1-40.96-40.96V128a40.96 40.96 0 0 1 40.96-40.96h783.36z m0 30.72H117.76a10.24 10.24 0 0 0-10.2144 9.472L107.52 128v184.32a10.24 10.24 0 0 0 9.472 10.2144L117.76 322.56h783.36a10.24 10.24 0 0 0 10.2144-9.472L911.36 312.32V128a10.24 10.24 0 0 0-9.472-10.2144L901.12 117.76zM384 384a40.96 40.96 0 0 1 40.96 40.96v184.32a40.96 40.96 0 0 1-40.96 40.96H117.76a40.96 40.96 0 0 1-40.96-40.96V424.96a40.96 40.96 0 0 1 40.96-40.96h266.24z m0 30.72H117.76a10.24 10.24 0 0 0-10.2144 9.472L107.52 424.96v184.32a10.24 10.24 0 0 0 9.472 10.2144L117.76 619.52h266.24a10.24 10.24 0 0 0 10.2144-9.472L394.24 609.28V424.96a10.24 10.24 0 0 0-9.472-10.2144L384 414.72zM901.12 384a40.96 40.96 0 0 1 40.96 40.96v184.32a40.96 40.96 0 0 1-40.96 40.96H496.64a40.96 40.96 0 0 1-40.96-40.96V424.96a40.96 40.96 0 0 1 40.96-40.96h404.48z m0 30.72H496.64a10.24 10.24 0 0 0-10.2144 9.472L486.4 424.96v184.32a10.24 10.24 0 0 0 9.472 10.2144L496.64 619.52h404.48a10.24 10.24 0 0 0 10.2144-9.472L911.36 609.28V424.96a10.24 10.24 0 0 0-9.472-10.2144L901.12 414.72z" fill="#000000" /><path d="M76.8 680.96m40.96 0l783.36 0q40.96 0 40.96 40.96l0 184.32q0 40.96-40.96 40.96l-783.36 0q-40.96 0-40.96-40.96l0-184.32q0-40.96 40.96-40.96Z" fill="#5459F6" /><path d="M901.12 680.96a40.96 40.96 0 0 1 40.96 40.96v184.32a40.96 40.96 0 0 1-40.96 40.96H117.76a40.96 40.96 0 0 1-40.96-40.96v-184.32a40.96 40.96 0 0 1 40.96-40.96h783.36z m0 30.72H117.76a10.24 10.24 0 0 0-10.2144 9.472L107.52 721.92v184.32a10.24 10.24 0 0 0 9.472 10.2144L117.76 916.48h783.36a10.24 10.24 0 0 0 10.2144-9.472L911.36 906.24v-184.32a10.24 10.24 0 0 0-9.472-10.2144L901.12 711.68z" fill="#000000" /></svg>