<?xml version="1.0" encoding="utf-8"?>
<!-- Generator: Adobe Illustrator 27.0.0, SVG Export Plug-In . SVG Version: 6.00 Build 0)  -->
<svg version="1.1" id="图层_1" xmlns="http://www.w3.org/2000/svg" xmlns:xlink="http://www.w3.org/1999/xlink" x="0px" y="0px"
	 viewBox="0 0 24 24" style="enable-background:new 0 0 24 24;" xml:space="preserve">
<style type="text/css">
	.st0{fill:url(#联合_313_00000112592390480364099970000007058693211048467370_);}
</style>
<linearGradient id="联合_313_00000091015706457183144180000007194231284487560332_" gradientUnits="userSpaceOnUse" x1="-639.4188" y1="379.2535" x2="-638.5518" y2="380.1425" gradientTransform="matrix(22 0 0 -22 14071 8364)">
	<stop  offset="0" style="stop-color:#4A6FE3"/>
	<stop  offset="1" style="stop-color:#4294F0"/>
</linearGradient>
<path id="联合_313" style="fill:url(#联合_313_00000091015706457183144180000007194231284487560332_);" d="M11.5,23
	c-0.3,0-0.5-0.2-0.5-0.5v-14C11,8.2,11.2,8,11.5,8h11C22.8,8,23,8.2,23,8.5v14c0,0.3-0.2,0.5-0.5,0.5H11.5z M1.5,23
	C1.2,23,1,22.8,1,22.5v-14C1,8.2,1.2,8,1.5,8h6C7.7,8,8,8.2,8,8.5v14C8,22.8,7.7,23,7.5,23H1.5z M1.5,6C1.2,6,1,5.8,1,5.5v-4
	C1,1.2,1.2,1,1.5,1h21C22.8,1,23,1.2,23,1.5v4C23,5.8,22.8,6,22.5,6H1.5z"/>
</svg>
