<?xml version="1.0" encoding="utf-8"?>
<!-- Generator: Adobe Illustrator 27.0.0, SVG Export Plug-In . SVG Version: 6.00 Build 0)  -->
<svg version="1.1" id="图层_1" xmlns="http://www.w3.org/2000/svg" xmlns:xlink="http://www.w3.org/1999/xlink" x="0px" y="0px"
	 viewBox="0 0 24 24" style="enable-background:new 0 0 24 24;" xml:space="preserve">
<style type="text/css">
	.st0{fill:url(#路径_23439_00000092447989969257957420000001688202268462668928_);}
	.st1{fill:url(#路径_23440_00000146491120292776813220000018162188049987712672_);}
</style>
<g id="组_18290" transform="translate(3.998 4.602)">
	
		<linearGradient id="路径_23439_00000092421280906894251810000011038285387400836231_" gradientUnits="userSpaceOnUse" x1="-596.378" y1="348.605" x2="-595.511" y2="349.494" gradientTransform="matrix(8.646 0 0 -8.646 5161.0562 3017.6716)">
		<stop  offset="0" style="stop-color:#4A6FE3"/>
		<stop  offset="1" style="stop-color:#4294F0"/>
	</linearGradient>
	<path id="路径_23439" style="fill:url(#路径_23439_00000092421280906894251810000011038285387400836231_);" d="M3.7,0.3
		c0,2.4,1.9,4.3,4.3,4.3c2.4,0,4.3-1.9,4.3-4.3C12.3-2.1,10.4-4,8-4l0,0C5.6-4,3.7-2.1,3.7,0.3z"/>
	
		<linearGradient id="路径_23440_00000106837903611269563170000006096754702404106375_" gradientUnits="userSpaceOnUse" x1="-645.9518" y1="370.3703" x2="-645.0848" y2="371.2593" gradientTransform="matrix(24.0191 0 0 -17.5658 15514.8291 6522.999)">
		<stop  offset="0" style="stop-color:#4A6FE3"/>
		<stop  offset="1" style="stop-color:#4294F0"/>
	</linearGradient>
	<path id="路径_23440" style="fill:url(#路径_23440_00000106837903611269563170000006096754702404106375_);" d="M4.1,11.5
		C2.9,9.4,0.2,8.7-1.8,9.9c-2.1,1.2-2.8,3.8-1.6,5.9c1.2,2.1,3.8,2.8,5.9,1.6c0,0,0,0,0,0C4.6,16.2,5.3,13.5,4.1,11.5
		C4.1,11.5,4.1,11.5,4.1,11.5z M17.8,9.9c-2.1-1.2-4.7-0.5-5.9,1.6s-0.5,4.7,1.6,5.9s4.7,0.5,5.9-1.6c0,0,0,0,0,0
		C20.6,13.7,19.9,11.1,17.8,9.9C17.8,9.9,17.8,9.9,17.8,9.9L17.8,9.9z M14.5,8c1-0.2,2.1-0.1,3.1,0.2c-0.2-2.8-1.7-5.4-4-7
		c-0.2,1.1-0.6,2.1-1.3,2.9C13.5,5.1,14.3,6.5,14.5,8z M0.3,7.9c0.4,0,0.8,0,1.2,0.1c0.3-1.5,1-2.9,2.2-3.9C3,3.3,2.5,2.3,2.3,1.2
		c-2.3,1.6-3.7,4.2-4,7C-1,8-0.4,7.9,0.3,7.9L0.3,7.9z M10.2,15.3c-0.7,0.2-1.4,0.4-2.2,0.4c-0.7,0-1.5-0.1-2.2-0.4
		c-0.3,1-0.9,1.9-1.7,2.6c2.5,1.1,5.3,1.1,7.8,0C11.1,17.3,10.5,16.4,10.2,15.3L10.2,15.3z"/>
</g>
</svg>
