<?xml version="1.0" encoding="utf-8"?>
<!-- Generator: Adobe Illustrator 27.0.0, SVG Export Plug-In . SVG Version: 6.00 Build 0)  -->
<svg version="1.1" id="图层_1" xmlns="http://www.w3.org/2000/svg" xmlns:xlink="http://www.w3.org/1999/xlink" x="0px" y="0px"
	 viewBox="0 0 24 24" style="enable-background:new 0 0 24 24;" xml:space="preserve">
<style type="text/css">
	.st0{fill:url(#路径_27047_00000119082736809835779960000004357614808751060146_);}
</style>
<linearGradient id="路径_27047_00000167358673115167988700000010680492002356541875_" gradientUnits="userSpaceOnUse" x1="-641.8953" y1="380.3051" x2="-641.0283" y2="381.1941" gradientTransform="matrix(24.0046 0 0 -23.56 15413.0879 8982.5439)">
	<stop  offset="0" style="stop-color:#4A6FE3"/>
	<stop  offset="1" style="stop-color:#4294F0"/>
</linearGradient>
<path id="路径_27047" style="fill:url(#路径_27047_00000167358673115167988700000010680492002356541875_);" d="M15.8,11
	c1.3,0,2.5,0.3,3.6,1l0.3,0.2l0.1,0.1c0.1,0.1,0.1,0.2,0,0.3c0,0.1-0.1,0.1-0.2,0.1h-0.1c-0.3-0.1-0.5-0.1-0.8-0.1
	c-3.2,0-5.8,2.6-5.8,5.8c0,2.2,1.3,4.3,3.3,5.2H4.8C2.2,23.8,0,21.6,0,19c0-0.5,0.1-1.1,0.3-1.6l0.6-1.7c1-2.8,3.6-4.6,6.5-4.6
	L15.8,11z M20.4,13.8c0.5,0.1,0.9,0.3,1.3,0.5c-0.3,0.7,0,1.4,0.7,1.7c0.3,0.2,0.7,0.2,1.1,0c0.2,0.4,0.4,0.8,0.5,1.3
	c-0.7,0.3-1,1-0.8,1.7c0.1,0.3,0.4,0.6,0.8,0.8c-0.1,0.5-0.3,0.9-0.5,1.3c-0.7-0.3-1.4,0-1.7,0.7c-0.2,0.3-0.2,0.7,0,1.1
	c-0.4,0.2-0.8,0.4-1.3,0.5c-0.3-0.7-1-1-1.7-0.8c-0.4,0.1-0.6,0.4-0.8,0.8c-0.5-0.1-0.9-0.3-1.3-0.5c0.3-0.7,0-1.4-0.7-1.7
	c-0.3-0.2-0.7-0.2-1.1,0c-0.2-0.4-0.4-0.8-0.5-1.3c0.7-0.3,1-1,0.8-1.7c-0.1-0.4-0.4-0.6-0.8-0.8c0.1-0.5,0.3-0.9,0.5-1.3
	c0.7,0.3,1.4,0,1.7-0.7c0.2-0.3,0.2-0.7,0-1.1c0.4-0.2,0.8-0.4,1.3-0.5c0.3,0.7,1,1,1.7,0.8C20,14.4,20.3,14.2,20.4,13.8L20.4,13.8z
	 M19.3,16.6c-1.1,0-2.1,0.9-2.1,2.1s0.9,2.1,2.1,2.1c1.1,0,2.1-0.9,2.1-2.1C21.3,17.6,20.4,16.6,19.3,16.6
	C19.3,16.6,19.3,16.6,19.3,16.6z M11.4,0.2c2.6,0,4.8,2.1,4.8,4.8c0,2.6-2.1,4.8-4.8,4.8C8.8,9.8,6.6,7.6,6.6,5c0,0,0,0,0,0
	C6.6,2.4,8.8,0.2,11.4,0.2z"/>
</svg>
