<?xml version="1.0" encoding="utf-8"?>
<!-- Generator: Adobe Illustrator 27.0.0, SVG Export Plug-In . SVG Version: 6.00 Build 0)  -->
<svg version="1.1" id="图层_1" xmlns="http://www.w3.org/2000/svg" xmlns:xlink="http://www.w3.org/1999/xlink" x="0px" y="0px"
	 viewBox="0 0 24 24" style="enable-background:new 0 0 24 24;" xml:space="preserve">
<style type="text/css">
	.st0{fill:url(#路径_27054_00000182490955546454438210000015445721896253528753_);}
</style>
<linearGradient id="路径_27054_00000020390979485346507370000017864858981950042802_" gradientUnits="userSpaceOnUse" x1="-651.3152" y1="383.7415" x2="-650.4482" y2="384.6304" gradientTransform="matrix(21.999 0 0 -23.0099 14332.3369 8850.9355)">
	<stop  offset="0" style="stop-color:#4A6FE3"/>
	<stop  offset="1" style="stop-color:#4294F0"/>
</linearGradient>
<path id="路径_27054" style="fill:url(#路径_27054_00000020390979485346507370000017864858981950042802_);" d="M4.9,1.6v0.8
	C5,3.9,6.3,5,7.9,4.9h8.3c1.5,0.1,2.8-1,3-2.5V1.6h1.3c1.3-0.1,2.5,0.9,2.6,2.2v17.5c-0.1,1.3-1.3,2.3-2.6,2.2H3.6
	c-1.3,0.1-2.5-0.9-2.6-2.2V3.8c0.1-1.3,1.3-2.3,2.6-2.2H4.9z M15.7,9.6l-0.1,0.1l-4.9,5l-2.3-2.3l-0.1-0.1c-0.5-0.4-1.2-0.4-1.7,0
	c-0.5,0.3-0.6,0.9-0.3,1.4c0,0,0,0.1,0.1,0.1l0.1,0.1l3.3,3.3l0.1,0.1c0.5,0.4,1.2,0.4,1.8,0l0.1-0.1l5.9-6l0.1-0.1
	c0.3-0.4,0.2-1-0.2-1.4c0,0,0,0-0.1-0.1C16.9,9.2,16.2,9.2,15.7,9.6L15.7,9.6z M16.1,0.5c0.5,0,1,0.4,1,0.9v1c0,0.5-0.5,0.9-1,0.9
	H7.9c-0.5,0-1-0.4-1-0.9v-1c0-0.5,0.5-0.9,1-0.9H16.1z"/>
</svg>
