<?xml version="1.0" encoding="utf-8"?>
<!-- Generator: Adobe Illustrator 27.0.0, SVG Export Plug-In . SVG Version: 6.00 Build 0)  -->
<svg version="1.1" id="图层_1" xmlns="http://www.w3.org/2000/svg" xmlns:xlink="http://www.w3.org/1999/xlink" x="0px" y="0px"
	 viewBox="0 0 24 24" style="enable-background:new 0 0 24 24;" xml:space="preserve">
<style type="text/css">
	.st0{fill:url(#减去_558_00000082340016818238913410000010562552611286469039_);}
</style>
<linearGradient id="减去_558_00000113352501301365526330000009361841473257183381_" gradientUnits="userSpaceOnUse" x1="-639.4188" y1="379.2535" x2="-638.5518" y2="380.1425" gradientTransform="matrix(22 0 0 -22 14070.9316 8364)">
	<stop  offset="0" style="stop-color:#4A6FE3"/>
	<stop  offset="1" style="stop-color:#4294F0"/>
</linearGradient>
<path id="减去_558" style="fill:url(#减去_558_00000113352501301365526330000009361841473257183381_);" d="M20.9,23h-18
	c-1.1,0-2-0.9-2-2V3c0-1.1,0.9-2,2-2h18c1.1,0,2,0.9,2,2v18C22.9,22.1,22,23,20.9,23z M14.3,5.8c-0.5,0-1,0.4-1,1v10.5
	c0,0.5,0.4,1,1,1c0.5,0,1-0.4,1-1V6.7C15.3,6.2,14.9,5.8,14.3,5.8z M5.7,5.8c-0.5,0-1,0.4-1,1v10.5c0,0.5,0.4,1,1,1c0.5,0,1-0.4,1-1
	V6.7C6.7,6.2,6.2,5.8,5.7,5.8z M18.1,8.7c-0.5,0-1,0.4-1,1v4.8c0,0.5,0.4,1,1,1c0.5,0,1-0.4,1-1V9.6C19.1,9.1,18.7,8.7,18.1,8.7
	L18.1,8.7z M9.5,8.7c-0.5,0-1,0.4-1,1v4.8c0,0.5,0.4,1,1,1c0.5,0,1-0.4,1-1V9.6C10.5,9.1,10.1,8.7,9.5,8.7C9.5,8.7,9.5,8.7,9.5,8.7
	L9.5,8.7z"/>
</svg>
