<?xml version="1.0" encoding="utf-8"?>
<!-- Generator: Adobe Illustrator 27.0.0, SVG Export Plug-In . SVG Version: 6.00 Build 0)  -->
<svg version="1.1" id="图层_1" xmlns="http://www.w3.org/2000/svg" xmlns:xlink="http://www.w3.org/1999/xlink" x="0px" y="0px"
	 viewBox="0 0 25 25" style="enable-background:new 0 0 25 25;" xml:space="preserve">
<style type="text/css">
	.st0{fill:url(#路径_27044_00000023280638031239594730000011564769611569797248_);}
</style>
<linearGradient id="路径_27044_00000078041090947237835220000004583435859243636380_" gradientUnits="userSpaceOnUse" x1="-652.8735" y1="384.2631" x2="-652.0065" y2="385.1521" gradientTransform="matrix(24 0 0 -24 15672.5 9244)">
	<stop  offset="0" style="stop-color:#4A6FE3"/>
	<stop  offset="1" style="stop-color:#4294F0"/>
</linearGradient>
<path id="路径_27044" style="fill:url(#路径_27044_00000078041090947237835220000004583435859243636380_);" d="M12.5,24.5
	c-6.6,0-12-5.4-12-12s5.4-12,12-12s12,5.4,12,12C24.5,19.1,19.1,24.5,12.5,24.5z M13.6,4.4h-2.2v7.8h2.2V4.4z M20.3,10.6
	C20.2,10,20,9.4,19.6,8.8c-0.3-0.6-0.7-1.1-1.1-1.6C18.2,6.7,17.4,6,17.4,6c-0.4,0.5-0.8,0.9-1.2,1.3c1.9,1.1,3,3.2,2.9,5.4
	c0,3.6-3,6.5-6.6,6.4c-3.5,0-6.4-2.9-6.4-6.4c0-2.2,1.1-4.2,2.9-5.4L7.8,6.1C7.3,6.5,6.8,6.9,6.4,7.4c-0.4,0.5-0.7,1-1,1.5
	c-0.3,0.6-0.5,1.2-0.6,1.8c-0.2,0.6-0.2,1.2-0.2,1.9c0,1.1,0.2,2.2,0.6,3.1c0.4,1,1,1.8,1.8,2.6C7.7,19,8.5,19.6,9.5,20
	c1,0.5,2.1,0.7,3.1,0.6c1.1,0,2.2-0.2,3.1-0.6c1-0.4,1.8-1,2.6-1.8c0.7-0.8,1.3-1.6,1.8-2.6c0.4-1,0.6-2.1,0.6-3.1
	C20.6,11.9,20.5,11.2,20.3,10.6L20.3,10.6z"/>
</svg>
