<?xml version="1.0" encoding="utf-8"?>
<!-- Generator: Adobe Illustrator 27.0.0, SVG Export Plug-In . SVG Version: 6.00 Build 0)  -->
<svg version="1.1" id="图层_1" xmlns="http://www.w3.org/2000/svg" xmlns:xlink="http://www.w3.org/1999/xlink" x="0px" y="0px"
	 viewBox="0 0 24 24" style="enable-background:new 0 0 24 24;" xml:space="preserve">
<style type="text/css">
	.st0{fill:url(#路径_27092_00000055666210408392276500000016947801412652697986_);}
	.st1{fill:url(#路径_27093_00000149344627302747495880000012072933381119245247_);}
	.st2{fill:url(#路径_27094_00000120517785983889017650000006401017333095488661_);}
</style>
<g id="组_20420" transform="translate(40 912)">
	
		<linearGradient id="路径_27092_00000016791521435628971350000014868557522749118606_" gradientUnits="userSpaceOnUse" x1="-681.8929" y1="-563.8276" x2="-681.0259" y2="-562.9387" gradientTransform="matrix(24.005 0 0 -7.749 16333.5537 -5271.7471)">
		<stop  offset="0" style="stop-color:#4A6FE3"/>
		<stop  offset="1" style="stop-color:#4294F0"/>
	</linearGradient>
	<path id="路径_27092" style="fill:url(#路径_27092_00000016791521435628971350000014868557522749118606_);" d="M-28-910
		L-28-910c-4.3,0-8.4,1.6-11.5,4.5L-40-905l0.5,0.5l1.7,1.7l0.5,0.5l0.5-0.5c4.9-4.5,12.5-4.5,17.5,0l0.5,0.5l0.5-0.5l1.7-1.7
		l0.5-0.5l-0.5-0.5C-19.6-908.4-23.7-910-28-910z"/>
	
		<linearGradient id="路径_27093_00000117679056819191707700000017663044463913246142_" gradientUnits="userSpaceOnUse" x1="-668.6779" y1="-576.0233" x2="-667.8109" y2="-575.1343" gradientTransform="matrix(16.284 0 0 -6.174 10855.5293 -4453.4429)">
		<stop  offset="0" style="stop-color:#4A6FE3"/>
		<stop  offset="1" style="stop-color:#4294F0"/>
	</linearGradient>
	<path id="路径_27093" style="fill:url(#路径_27093_00000117679056819191707700000017663044463913246142_);" d="M-20.4-899.9
		c-2.1-1.9-4.8-2.9-7.6-2.9h-0.5l0,0c-2.6,0.1-5.2,1.1-7.1,2.9l-0.6,0.5l0.5,0.5l1.8,1.7l0.5,0.5l0.5-0.5c2.8-2.5,6.9-2.5,9.7,0
		l0.5,0.5l0.5-0.5l1.8-1.7l0.5-0.5L-20.4-899.9z"/>
	
		<linearGradient id="路径_27094_00000129168869165021699030000005372439630807185063_" gradientUnits="userSpaceOnUse" x1="-624.4507" y1="-583.8205" x2="-623.5837" y2="-582.9315" gradientTransform="matrix(7.838 0 0 -5.4563 4863.0586 -4076.4502)">
		<stop  offset="0" style="stop-color:#4A6FE3"/>
		<stop  offset="1" style="stop-color:#4294F0"/>
	</linearGradient>
	<path id="路径_27094" style="fill:url(#路径_27094_00000129168869165021699030000005372439630807185063_);" d="M-28-890
		l0.5-0.5l2.8-2.8l0.6-0.6l-0.6-0.5c-0.9-0.7-2.1-1.1-3.3-1.1c-1.2,0-2.3,0.4-3.3,1.1l-0.6,0.5l0.6,0.6l2.8,2.8L-28-890z"/>
</g>
</svg>
