<?xml version="1.0" encoding="utf-8"?>
<!-- Generator: Adobe Illustrator 27.0.0, SVG Export Plug-In . SVG Version: 6.00 Build 0)  -->
<svg version="1.1" id="图层_1" xmlns="http://www.w3.org/2000/svg" xmlns:xlink="http://www.w3.org/1999/xlink" x="0px" y="0px"
	 viewBox="0 0 24 24" style="enable-background:new 0 0 24 24;" xml:space="preserve">
<style type="text/css">
	.st0{fill:url(#路径_27095_00000078029165921438263700000012598954284877514886_);}
</style>
<linearGradient id="路径_27095_00000021095291567589843130000017320402622569715132_" gradientUnits="userSpaceOnUse" x1="-639.4069" y1="379.2448" x2="-638.5399" y2="380.1338" gradientTransform="matrix(21.9979 0 0 -22 14069.6016 8364)">
	<stop  offset="0" style="stop-color:#4A6FE3"/>
	<stop  offset="1" style="stop-color:#4294F0"/>
</linearGradient>
<path id="路径_27095" style="fill:url(#路径_27095_00000021095291567589843130000017320402622569715132_);" d="M19.8,14.7h-7.1
	v2.1h7.1V14.7z M19.8,10.6h-7.1v2.1h7.1V10.6z M19.8,5.8H4.2v2.1h15.5V5.8z M4.2,16.8h5.8v-6.2H4.2V16.8z M20.3,23
	c-0.3-1-1.4-1.6-2.4-1.3c-0.6,0.2-1.1,0.7-1.3,1.3h-2.8c-0.3-1-1.4-1.6-2.4-1.3c-0.6,0.2-1.1,0.7-1.3,1.3H7.3C7.1,22,6,21.4,5,21.7
	c-0.6,0.2-1.1,0.7-1.3,1.3H1V2.4C1,1.6,1.6,1,2.3,1h19.4C22.4,1,23,1.6,23,2.4V23L20.3,23L20.3,23z"/>
</svg>
