<?xml version="1.0" encoding="utf-8"?>
<!-- Generator: Adobe Illustrator 27.0.0, SVG Export Plug-In . SVG Version: 6.00 Build 0)  -->
<svg version="1.1" id="图层_1" xmlns="http://www.w3.org/2000/svg" xmlns:xlink="http://www.w3.org/1999/xlink" x="0px" y="0px"
	 viewBox="0 0 24 24" style="enable-background:new 0 0 24 24;" xml:space="preserve">
<style type="text/css">
	.st0{fill:url(#路径_27096_00000142878876195292171310000003470164245914367901_);}
	.st1{fill:url(#路径_27097_00000166633501239210909980000011606112066097692055_);}
</style>
<g id="组_20423" transform="translate(37.851 1205)">
	
		<linearGradient id="路径_27096_00000094594511378889509430000015178115772868769470_" gradientUnits="userSpaceOnUse" x1="-673.8196" y1="-824.3466" x2="-672.9526" y2="-823.4576" gradientTransform="matrix(19.7645 0 0 -24 13284.585 -20968.0195)">
		<stop  offset="0" style="stop-color:#4A6FE3"/>
		<stop  offset="1" style="stop-color:#4294F0"/>
	</linearGradient>
	<path id="路径_27096" style="fill:url(#路径_27096_00000094594511378889509430000015178115772868769470_);" d="M-16.8-1182.6
		H-33c-0.6,0-1.1-0.5-1.1-1.1c0-0.6,0.5-1.1,1.1-1.1h11.5v-20.2h-12.6c-0.9,0-1.6,0.7-1.6,1.6v19.6c0,1.5,1.2,2.7,2.7,2.7
		c0,0,0,0,0,0h16.2c0.5,0,0.8-0.4,0.8-0.8S-16.3-1182.6-16.8-1182.6L-16.8-1182.6z"/>
	
		<linearGradient id="路径_27097_00000059304437538595992080000009833282069704212896_" gradientUnits="userSpaceOnUse" x1="-542.6363" y1="-826.5809" x2="-541.7693" y2="-825.692" gradientTransform="matrix(4.058 0 0 -20.9412 2182.4207 -18496.5215)">
		<stop  offset="0" style="stop-color:#4A6FE3"/>
		<stop  offset="1" style="stop-color:#4294F0"/>
	</linearGradient>
	<path id="路径_27097" style="fill:url(#路径_27097_00000059304437538595992080000009833282069704212896_);" d="M-17.7-1205H-20
		v20.9h2.3c0.9,0,1.7-0.8,1.7-1.7c0,0,0,0,0,0v-17.5C-16-1204.2-16.8-1205-17.7-1205C-17.7-1205-17.7-1205-17.7-1205z"/>
</g>
</svg>
