<?xml version="1.0" encoding="utf-8"?>
<!-- Generator: Adobe Illustrator 27.0.0, SVG Export Plug-In . SVG Version: 6.00 Build 0)  -->
<svg version="1.1" id="图层_1" xmlns="http://www.w3.org/2000/svg" xmlns:xlink="http://www.w3.org/1999/xlink" x="0px" y="0px"
	 viewBox="0 0 24 24" style="enable-background:new 0 0 24 24;" xml:space="preserve">
<style type="text/css">
	.st0{fill:url(#路径_27106_00000013170311643619275020000005053677290414338706_);}
</style>
<linearGradient id="路径_27106_00000028293417000855568220000012306863686897751967_" gradientUnits="userSpaceOnUse" x1="-638.6714" y1="380.4817" x2="-637.8044" y2="381.3707" gradientTransform="matrix(21.473 0 0 -23.728 13718.0312 9048.9971)">
	<stop  offset="0" style="stop-color:#4A6FE3"/>
	<stop  offset="1" style="stop-color:#4294F0"/>
</linearGradient>
<path id="路径_27106" style="fill:url(#路径_27106_00000028293417000855568220000012306863686897751967_);" d="M4.1,6.2
	C4,6.3,3.9,6.4,3.8,6.5C3.6,6.9,3.7,7.4,4.1,7.7l6.8,3.8c0.5,0.3,1.1,0.3,1.6,0l7-3.8c0.1-0.1,0.2-0.2,0.3-0.3
	c0.2-0.4,0.1-0.9-0.3-1.1l-6.8-3.9C12.2,2,11.6,2,11,2.3L4.1,6.2z M12.6,0.2l9.1,5.2c0.5,0.3,0.8,0.8,0.8,1.4V17
	c0,0.6-0.3,1.1-0.8,1.4l-9.1,5.2c-0.5,0.3-1.1,0.3-1.6,0l-9.1-5.2c-0.5-0.3-0.8-0.8-0.8-1.4V6.7c0-0.6,0.3-1.1,0.8-1.4l9.1-5.2
	C11.6-0.1,12.2-0.1,12.6,0.2z"/>
</svg>
