<?xml version="1.0" encoding="utf-8"?>
<!-- Generator: Adobe Illustrator 27.0.0, SVG Export Plug-In . SVG Version: 6.00 Build 0)  -->
<svg version="1.1" id="_2镜像" xmlns="http://www.w3.org/2000/svg" xmlns:xlink="http://www.w3.org/1999/xlink" x="0px" y="0px"
	 viewBox="0 0 24 24" style="enable-background:new 0 0 24 24;" xml:space="preserve">
<style type="text/css">
	.st0{fill:url(#路径_27060_00000004520956652474545610000009751250767040504464_);}
</style>
<linearGradient id="路径_27060_00000050660075406655717420000002329208871091548561_" gradientUnits="userSpaceOnUse" x1="-639.4189" y1="377.4287" x2="-638.5519" y2="378.3177" gradientTransform="matrix(22 0 0 -19.8518 14071.0244 7512.2329)">
	<stop  offset="0" style="stop-color:#4A6FE3"/>
	<stop  offset="1" style="stop-color:#4294F0"/>
</linearGradient>
<path id="路径_27060" style="fill:url(#路径_27060_00000050660075406655717420000002329208871091548561_);" d="M9.7,4.4L9.7,4.4
	L2.5,2.1C1.8,2,1.2,2.4,1,3c0,0.1,0,0.2,0,0.3v17.4c0,0.7,0.5,1.2,1.2,1.2c0.1,0,0.2,0,0.3,0l7.5-2.3c0.5-0.3,0.8-0.8,0.8-1.4V5.8
	C10.8,5.2,10.4,4.6,9.7,4.4z M8.9,17.7l-6.1,1.6V4.7l6.1,1.6V17.7L8.9,17.7z M21.8,2.1c-0.1,0-0.2,0-0.3,0l-7.2,2.3h0
	c-0.7,0.2-1.1,0.8-1.1,1.5v12.4c0,0.6,0.3,1.1,0.8,1.4l7.5,2.3c0.7,0.1,1.3-0.3,1.5-0.9c0-0.1,0-0.2,0-0.3V3.3
	C23,2.6,22.5,2.1,21.8,2.1C21.8,2.1,21.8,2.1,21.8,2.1z"/>
</svg>
