<?xml version="1.0" encoding="utf-8"?>
<!-- Generator: Adobe Illustrator 27.0.0, SVG Export Plug-In . SVG Version: 6.00 Build 0)  -->
<svg version="1.1" id="图层_1" xmlns="http://www.w3.org/2000/svg" xmlns:xlink="http://www.w3.org/1999/xlink" x="0px" y="0px"
	 viewBox="0 0 24 24" style="enable-background:new 0 0 24 24;" xml:space="preserve">
<style type="text/css">
	.st0{fill:url(#减去_559_00000074414544115907880150000014697613397012297613_);}
</style>
<linearGradient id="减去_559_00000025400555406626249040000013356990838451313802_" gradientUnits="userSpaceOnUse" x1="-639.4604" y1="379.2942" x2="-638.5934" y2="380.1832" gradientTransform="matrix(22 0 0 -22 14071 8364)">
	<stop  offset="0" style="stop-color:#4A6FE3"/>
	<stop  offset="1" style="stop-color:#4294F0"/>
</linearGradient>
<path id="减去_559" style="fill:url(#减去_559_00000025400555406626249040000013356990838451313802_);" d="M17.5,23h-11
	c-0.5,0-0.9-0.4-0.9-0.9c0-0.5,0.4-0.9,0.9-0.9h11c0.5,0,0.9,0.4,0.9,0.9C18.4,22.6,18,23,17.5,23z M21,19.3H3c-1.1,0-2-0.9-2-2V3
	c0-1.1,0.9-2,2-2h18c1.1,0,2,0.9,2,2v14.3C23,18.4,22.1,19.3,21,19.3z M3.8,2.9c-0.6,0-1,0.4-1,1v4.8c0,0.6,0.4,1,1,1c0,0,0,0,0,0
	h16.4c0.6,0,1-0.4,1-1V3.9c0-0.6-0.4-1-1-1L3.8,2.9z"/>
</svg>
