<?xml version="1.0" encoding="utf-8"?>
<!-- Generator: Adobe Illustrator 27.0.0, SVG Export Plug-In . SVG Version: 6.00 Build 0)  -->
<svg version="1.1" id="_4进程" xmlns="http://www.w3.org/2000/svg" xmlns:xlink="http://www.w3.org/1999/xlink" x="0px" y="0px"
	 viewBox="0 0 24 24" style="enable-background:new 0 0 24 24;" xml:space="preserve">
<style type="text/css">
	.st0{fill:url(#减去_557_00000181767041665871019500000007181605198009719700_);}
</style>
<linearGradient id="减去_557_00000127039305290353773470000003015695415122417799_" gradientUnits="userSpaceOnUse" x1="-1279.0093" y1="34.5613" x2="-1278.1423" y2="33.6723" gradientTransform="matrix(22 0 0 22.0031 28141 -741.0078)">
	<stop  offset="0" style="stop-color:#4A6FE3"/>
	<stop  offset="1" style="stop-color:#4294F0"/>
</linearGradient>
<path id="减去_557" style="fill:url(#减去_557_00000127039305290353773470000003015695415122417799_);" d="M17.4,23h-11
	c-0.3,0-0.6-0.2-0.7-0.5v-1.1c0-0.3,0.3-0.6,0.7-0.6h11c0.3,0,0.6,0.2,0.7,0.6v1.1C18,22.8,17.7,23,17.4,23z M20.6,18.6H3.4
	c-1.3,0-2.4-1.1-2.4-2.4V3.4C1,2.1,2.1,1,3.4,1h17.1C21.9,1,23,2.1,23,3.4v12.7C23,17.5,21.9,18.6,20.6,18.6z M10.3,8.8L10.3,8.8
	l2.9,3.8c0.2,0.2,0.5,0.4,0.8,0.4l0,0c0.3,0,0.6-0.2,0.8-0.4l1.4-1.9h2.6c0.6,0,1-0.4,1-1s-0.4-1-1-1h-3.1c-0.3,0-0.6,0.2-0.8,0.4
	L14,10.3l-3-3.9C10.8,6.2,10.5,6,10.2,6l0,0C9.9,6,9.6,6.2,9.4,6.5L8.1,8.7H5.2c-0.6,0-1,0.4-1,1s0.4,1,1,1h3.5
	c0.3,0,0.7-0.2,0.8-0.5L10.3,8.8L10.3,8.8z"/>
</svg>
