<?xml version="1.0" encoding="utf-8"?>
<!-- Generator: Adobe Illustrator 27.0.0, SVG Export Plug-In . SVG Version: 6.00 Build 0)  -->
<svg version="1.1" id="图层_1" xmlns="http://www.w3.org/2000/svg" xmlns:xlink="http://www.w3.org/1999/xlink" x="0px" y="0px"
	 viewBox="0 0 24 24" style="enable-background:new 0 0 24 24;" xml:space="preserve">
<style type="text/css">
	.st0{fill:url(#路径_27043_00000061439372421995899610000000364245547797230253_);}
</style>
<linearGradient id="路径_27043_00000178921520635266888270000001896286985421989539_" gradientUnits="userSpaceOnUse" x1="-651.3287" y1="383.1854" x2="-650.4617" y2="384.0744" gradientTransform="matrix(22.001 0 0 -22 14333.6631 8450.498)">
	<stop  offset="0" style="stop-color:#4A6FE3"/>
	<stop  offset="1" style="stop-color:#4294F0"/>
</linearGradient>
<path id="路径_27043" style="fill:url(#路径_27043_00000178921520635266888270000001896286985421989539_);" d="M20.7,1H3.3
	C2,1,1,2,1,3.3c0,0,0,0,0,0v3.5h22V3.3C23,2,22,1,20.7,1C20.7,1,20.7,1,20.7,1z M1,8.5v12.2C1,22,2,23,3.3,23c0,0,0,0,0,0h17.4
	c1.3,0,2.3-1,2.3-2.3c0,0,0,0,0,0V8.5H1z M11.4,18.9c0,0.6-0.5,1.2-1.2,1.2H8.5c-0.6,0-1.2-0.5-1.2-1.2v-1.7c0-0.6,0.5-1.2,1.2-1.2
	h1.7c0.6,0,1.2,0.5,1.2,1.2V18.9z M11.4,13.7c0,0.6-0.5,1.2-1.2,1.2H8.5c-0.6,0-1.2-0.5-1.2-1.2V12c0-0.6,0.5-1.2,1.2-1.2h1.7
	c0.6,0,1.2,0.5,1.2,1.2V13.7z M16.6,18.9c0,0.6-0.5,1.2-1.2,1.2h-1.7c-0.6,0-1.2-0.5-1.2-1.2v-1.7c0-0.6,0.5-1.2,1.2-1.2h1.7
	c0.6,0,1.2,0.5,1.2,1.2L16.6,18.9z M16.7,13.7l-1.2,1.2c-0.5,0.5-1.2,0.5-1.6,0l-1.2-1.2c-0.5-0.5-0.5-1.2,0-1.6l1.2-1.2
	c0.5-0.5,1.2-0.5,1.6,0l1.2,1.2C17.1,12.5,17.1,13.2,16.7,13.7L16.7,13.7z"/>
</svg>
