<?xml version="1.0" encoding="utf-8"?>
<!-- Generator: Adobe Illustrator 27.0.0, SVG Export Plug-In . SVG Version: 6.00 Build 0)  -->
<svg version="1.1" id="图层_1" xmlns="http://www.w3.org/2000/svg" xmlns:xlink="http://www.w3.org/1999/xlink" x="0px" y="0px"
	 viewBox="0 0 24 24" style="enable-background:new 0 0 24 24;" xml:space="preserve">
<style type="text/css">
	.st0{fill:url(#联合_1042_00000084499575035847056560000013511353884894376381_);}
</style>
<linearGradient id="联合_1042_00000023973345696722620190000011132704011623952525_" gradientUnits="userSpaceOnUse" x1="-652.1119" y1="383.7382" x2="-651.2449" y2="384.6272" gradientTransform="matrix(23.0001 0 0 -23.023 15002.0371 8855.6309)">
	<stop  offset="0" style="stop-color:#4A6FE3"/>
	<stop  offset="1" style="stop-color:#4294F0"/>
</linearGradient>
<path id="联合_1042" style="fill:url(#联合_1042_00000023973345696722620190000011132704011623952525_);" d="M2.1,23.5
	c-0.9,0-1.6-0.7-1.6-1.6c0,0,0,0,0,0V2.2C0.5,1.7,0.7,1.3,1,1c0.3-0.3,0.7-0.5,1.2-0.5l12.8,0c0.6,0,1.1,0.2,1.5,0.6l3.9,3.8h1.5
	c0.9,0,1.6,0.7,1.6,1.6v15.4c0,0.9-0.7,1.6-1.6,1.6L2.1,23.5z M7.9,14.3c-0.3,0.3-0.4,0.9,0,1.2c0,0,0,0,0,0l3.5,3.5
	c0.2,0.2,0.4,0.3,0.6,0.3c0.2,0,0.5-0.1,0.6-0.3l3.5-3.5c0.3-0.4,0.3-0.9-0.1-1.3c-0.2-0.1-0.4-0.2-0.6-0.2c-0.2,0-0.5,0.1-0.6,0.3
	l-2,2V10c0-0.5-0.4-0.9-0.9-0.9c-0.5,0-0.8,0.4-0.9,0.9v6.3l-2-2C8.8,14,8.2,14,7.9,14.3C7.9,14.3,7.9,14.3,7.9,14.3L7.9,14.3z
	 M17.9,4.9l-2.6-2.5c-0.1-0.1-0.2-0.1-0.3-0.1l-12.7,0l0,2.7L17.9,4.9z"/>
</svg>
