<?xml version="1.0" encoding="utf-8"?>
<!-- Generator: Adobe Illustrator 27.0.0, SVG Export Plug-In . SVG Version: 6.00 Build 0)  -->
<svg version="1.1" id="图层_1" xmlns="http://www.w3.org/2000/svg" xmlns:xlink="http://www.w3.org/1999/xlink" x="0px" y="0px"
	 viewBox="0 0 24 24" style="enable-background:new 0 0 24 24;" xml:space="preserve">
<style type="text/css">
	.st0{fill:url(#路径_23438_00000158721383046995601830000016491132940823058347_);}
</style>
<linearGradient id="路径_23438_00000135657899085774657720000008287483446126196922_" gradientUnits="userSpaceOnUse" x1="-641.923" y1="379.5895" x2="-641.056" y2="380.4785" gradientTransform="matrix(24.0145 0 0 -22.4997 15419.7061 8562.3926)">
	<stop  offset="0" style="stop-color:#4A6FE3"/>
	<stop  offset="1" style="stop-color:#4294F0"/>
</linearGradient>
<path id="路径_23438" style="fill:url(#路径_23438_00000135657899085774657720000008287483446126196922_);" d="M12.9,2.3
	c0,0-2.2-0.3-5.6,2.2c0,0-3,2.8-3.3,4.9C6.4,6.4,9.5,4,12.9,2.3z M22.6,7.3c0.6-0.6,0.8-2.6,0.8-2.6c0.2-1.1-0.1-2.2-0.8-3.1
	c-1.7-1.7-5.8-0.3-5.8-0.3C13.3,2.6,10.1,4.5,7.3,7C0.5,12.9,0,19,0,19c-0.3,4.2,3.3,4.2,3.3,4.2c3.7,0.2,5.5-1.1,5.7-1.3
	c1.4,0.7,2.9,1.1,4.5,1.2c8.3-0.5,9.9-7.1,9.9-7.1h-5.5c-1.2,3-4.9,2.4-4.9,2.4c-3.6-0.7-3.6-4.6-3.6-4.6H24
	C24.2,11.5,23.7,9.3,22.6,7.3L22.6,7.3z M18,3.4c-5.5,3.2-6.8,4.8-6.8,4.8c0.9-0.7,2-1,3.1-1c4.1,0.5,3.9,3.9,3.9,3.9H9.4
	c0.1-0.8,0.5-1.6,1-2.2c-2.5,2.3-4.5,4.9-6.1,7.9c0.8,2,2.3,3.7,4.1,4.9c-0.8,0.5-1.6,0.8-2.5,0.9c-3.3,0.4-3.2-2.2-3.2-2.2
	c0.1-2.7,2.8-6.9,2.8-6.9c1.7-2.4,3.7-4.5,5.9-6.5c1.9-1.6,4-3,6.3-4.1c3.1-1.5,4.5-0.3,4.5-0.3l0,0C24,3.8,22.7,6.5,22.4,7
	C21.4,5.3,19.9,4,18,3.4L18,3.4z"/>
</svg>
