<?xml version="1.0" standalone="no"?><!DOCTYPE svg PUBLIC "-//W3C//DTD SVG 1.1//EN" "http://www.w3.org/Graphics/SVG/1.1/DTD/svg11.dtd"><svg t="1676944273386" class="icon" viewBox="0 0 1024 1024" version="1.1" xmlns="http://www.w3.org/2000/svg" p-id="6396" xmlns:xlink="http://www.w3.org/1999/xlink" width="200" height="200"><path d="M518.4 864H166.4v-704h576V320c0 19.2 12.8 32 32 32h12.8c12.8 0 25.6-12.8 32-32V140.8c0-25.6-25.6-44.8-51.2-44.8H147.2c-25.6 0-44.8 19.2-51.2 44.8v748.8c0 25.6 25.6 44.8 51.2 44.8h371.2c19.2 0 32-12.8 38.4-32 0-25.6-19.2-38.4-38.4-38.4z" fill="#666666" p-id="6397"></path><path d="M768 512c-96 0-166.4 70.4-166.4 160 0 44.8 19.2 89.6 51.2 121.6v115.2c0 12.8 6.4 19.2 19.2 19.2 6.4 0 6.4 0 12.8-6.4l57.6-38.4 12.8-6.4c6.4 0 6.4-6.4 6.4-6.4s6.4 0 6.4 6.4l12.8 6.4 57.6 38.4c6.4 0 6.4 6.4 12.8 6.4 12.8 0 19.2-6.4 19.2-19.2v-115.2c32-32 57.6-76.8 51.2-121.6 6.4-83.2-64-160-153.6-160z m57.6 236.8l-12.8 12.8v57.6l-12.8-12.8c-12.8-6.4-19.2-12.8-32-12.8s-19.2 6.4-32 12.8l-12.8 6.4v-57.6l-12.8-12.8c-19.2-12.8-32-38.4-32-64 0-44.8 44.8-89.6 89.6-89.6s89.6 44.8 89.6 89.6c0 25.6-12.8 51.2-32 70.4z" fill="#666666" p-id="6398"></path><path d="M416 646.4c-6.4 0-19.2 0-25.6-6.4L256 524.8c-19.2-12.8-19.2-38.4-6.4-51.2 12.8-19.2 38.4-19.2 51.2-6.4l108.8 83.2 198.4-204.8c12.8-12.8 38.4-12.8 51.2 0 12.8 12.8 12.8 38.4 0 51.2L441.6 633.6c-6.4 6.4-19.2 12.8-25.6 12.8z" fill="#666666" p-id="6399"></path></svg>