<?xml version="1.0" standalone="no"?><!DOCTYPE svg PUBLIC "-//W3C//DTD SVG 1.1//EN" "http://www.w3.org/Graphics/SVG/1.1/DTD/svg11.dtd"><svg t="1676944277095" class="icon" viewBox="0 0 1024 1024" version="1.1" xmlns="http://www.w3.org/2000/svg" p-id="6548" xmlns:xlink="http://www.w3.org/1999/xlink" width="200" height="200"><path d="M832 416V896H192V416h640m0-64H192c-38.4 0-64 25.6-64 64V896c0 38.4 25.6 64 64 64h640c38.4 0 64-25.6 64-64V416c0-38.4-25.6-64-64-64z" fill="#333333" p-id="6549"></path><path d="M512 524.8c-19.2 0-32 12.8-32 32v192c0 19.2 12.8 32 32 32s32-12.8 32-32v-192c0-12.8-12.8-32-32-32zM512 128c108.8 0 192 83.2 192 192h64c0-140.8-115.2-256-256-256S256 179.2 256 320h64c0-108.8 83.2-192 192-192z" fill="#333333" p-id="6550"></path></svg>