<?xml version="1.0" standalone="no"?><!DOCTYPE svg PUBLIC "-//W3C//DTD SVG 1.1//EN" "http://www.w3.org/Graphics/SVG/1.1/DTD/svg11.dtd"><svg class="icon" width="200px" height="200.00px" viewBox="0 0 1024 1024" version="1.1" xmlns="http://www.w3.org/2000/svg"><path fill="#999999" d="M512 64C264.8 64 64 264.8 64 512s200.8 448 448 448 448-200.8 448-448S759.2 64 512 64z m272 719.2c-35.2 35.2-76 63.2-122.4 82.4C614.4 885.6 564 896 512 896s-102.4-10.4-149.6-30.4c-45.6-19.2-86.4-47.2-122.4-82.4-35.2-35.2-63.2-76-82.4-122.4C137.6 614.4 128 564 128 512s10.4-102.4 30.4-149.6C177.6 316.8 204.8 276 240 240c35.2-35.2 76-63.2 122.4-82.4C409.6 137.6 460 128 512 128s102.4 10.4 149.6 30.4C707.2 177.6 748 204.8 784 240c35.2 35.2 63.2 76.8 82.4 122.4 20 47.2 30.4 97.6 30.4 149.6s-10.4 102.4-30.4 149.6c-20 45.6-47.2 86.4-82.4 121.6z"  /><path fill="#999999" d="M500 667.2c-12.8 0-24.8 4-34.4 12.8-9.6 8.8-13.6 20-13.6 33.6 0 12.8 4.8 24 13.6 33.6 9.6 9.6 20.8 13.6 34.4 13.6s24.8-4.8 34.4-12.8c9.6-9.6 14.4-20.8 14.4-34.4 0-13.6-4.8-24.8-13.6-33.6-9.6-8.8-21.6-12.8-35.2-12.8z m114.4-350.4c-26.4-24-60.8-35.2-102.4-35.2-48.8 0-87.2 13.6-114.4 42.4-28 28-41.6 64.8-41.6 113.6h68.8c0-28.8 5.6-51.2 17.6-67.2 12.8-19.2 35.2-28 64.8-28 24 0 43.2 6.4 56 20 12.8 12.8 19.2 31.2 19.2 54.4 0 16.8-6.4 32.8-18.4 48l-11.2 12.8c-40.8 36-65.6 63.2-74.4 81.6-9.6 16.8-12.8 38.4-12.8 62.4v11.2H536v-11.2c0-16 3.2-30.4 10.4-43.2 5.6-12 15.2-24 28-34.4 31.2-27.2 49.6-44 55.2-51.2 16.8-20.8 24.8-48 24.8-80 0-41.6-13.6-72.8-40-96z"  /></svg>