<?xml version="1.0" standalone="no"?><!DOCTYPE svg PUBLIC "-//W3C//DTD SVG 1.1//EN" "http://www.w3.org/Graphics/SVG/1.1/DTD/svg11.dtd"><svg class="icon" width="200px" height="200.00px" viewBox="0 0 1024 1024" version="1.1" xmlns="http://www.w3.org/2000/svg"><path d="M130.24 243.2h761.6c-31.248 390.528-51.588 563.18-61.04 631.904-3.628 26.298-17.516 49.056-42.828 57.076C747.92 944.858 667.37 960 511.04 960s-236.88-15.142-276.932-27.82c-25.312-8.02-39.2-30.78-42.828-57.076C181.828 806.38 161.488 633.728 130.24 243.2z" fill="#1677FF" /><path d="M463.62 64c-38.574 0-72.8 24.678-85.008 61.266l-10.192 30.58c-73.048 2.388-130.728 6.33-173.064 10.1-53.312 4.746-95.894 43.632-108.864 95.54l-6.002 23.986c-10.192 40.74 11.558 76.876 53.38 80.744 61.174 5.66 173.398 11.384 377.192 11.384 203.796 0 316.02-5.724 377.194-11.384 41.82-3.868 63.548-40.004 53.38-80.744l-6.004-23.984c-12.97-51.91-55.574-90.796-108.864-95.54-42.336-3.772-100.04-7.716-173.108-10.104l-10.192-30.578C631.26 88.68 597.034 64 558.46 64h-94.84z" fill="#94BFFF" /><path d="M379.844 489.6c-25.918 0-46.414 22.004-44.554 47.868l16.016 224.23c1.658 23.384 21.122 41.502 44.554 41.502 25.94 0 46.434-22.004 44.576-47.868L424.42 531.1c-1.66-23.384-21.124-41.502-44.576-41.502zM642.26 489.6c-23.432 0-42.896 18.118-44.554 41.502l-16.016 224.226c-1.86 25.868 18.636 47.872 44.554 47.872 23.452 0 42.918-18.118 44.576-41.502l16.016-224.226c1.86-25.868-18.638-47.872-44.576-47.872z" fill="#FFFFFF" /></svg>