<?xml version="1.0" standalone="no"?><!DOCTYPE svg PUBLIC "-//W3C//DTD SVG 1.1//EN" "http://www.w3.org/Graphics/SVG/1.1/DTD/svg11.dtd"><svg class="icon" width="200px" height="200.00px" viewBox="0 0 1024 1024" version="1.1" xmlns="http://www.w3.org/2000/svg"><path d="M513 928c153.32 0 254.624-5.79 316.106-11.268 47.932-4.254 84.888-39.528 89.972-87.478 4.648-44.044 8.922-107.522 8.922-192.374 0-128.992-9.856-208.59-15.978-245.606-2.718-16.406-9.69-31.648-20.626-44.16-71.92-82.304-242.234-215.484-358.186-246.454a78.12 78.12 0 0 0-40.42 0C376.838 131.63 206.52 264.81 134.6 347.116c-10.934 12.51-17.906 27.752-20.624 44.158C107.858 428.29 98 507.888 98 636.88c0 84.852 4.274 148.33 8.922 192.374 5.084 47.95 42.04 83.224 89.972 87.48C258.376 922.208 359.68 928 513 928z" fill="#1677FF" /><path d="M305.5 762c0-20.676 16.144-37.684 36.81-38.438 36.79-1.34 98.19-3.062 170.69-3.062s133.9 1.724 170.69 3.062c20.666 0.754 36.81 17.762 36.81 38.438 0 20.674-16.144 37.684-36.81 38.436-36.79 1.34-98.19 3.064-170.69 3.064s-133.9-1.724-170.69-3.064c-20.666-0.752-36.81-17.76-36.81-38.436z" fill="#FFFFFF" /></svg>