<?xml version="1.0" standalone="no"?><!DOCTYPE svg PUBLIC "-//W3C//DTD SVG 1.1//EN" "http://www.w3.org/Graphics/SVG/1.1/DTD/svg11.dtd"><svg t="1662117581635" class="icon" viewBox="0 0 1024 1024" version="1.1" xmlns="http://www.w3.org/2000/svg" p-id="1967" xmlns:xlink="http://www.w3.org/1999/xlink" width="200" height="200"><path d="M704 325.91c0 17.67-14.33 32-32 32H352c-17.67 0-32-14.33-32-32s14.33-32 32-32h320c17.67 0 32 14.33 32 32zM576 504.41c0 17.67-14.33 32-32 32H352c-17.67 0-32-14.33-32-32s14.33-32 32-32h192c17.67 0 32 14.33 32 32zM450.55 682.91c0 17.67-14.33 32-32 32H352c-17.67 0-32-14.33-32-32s14.33-32 32-32h66.55c17.68 0 32 14.33 32 32zM832.18 543.55l45.46 45.46-275.37 275.38-60.11 15.08 15.16-61.05 274.86-274.87m0-77.25c-8.19 0-16.38 3.12-22.63 9.37L505.57 779.65a31.838 31.838 0 0 0-9.02 17.91L464.4 927c-5.36 16.15 7.11 31.61 22.65 31.61 2.5 0 5.09-0.4 7.69-1.27l133.46-33.48c2.94-0.98 5.61-2.32 8-3.94 1.89-1.22 3.68-2.64 5.34-4.3l303.98-303.98c12.5-12.5 12.5-32.76 0-45.25l-90.72-90.72c-6.24-6.25-14.43-9.37-22.62-9.37z" fill="#666666" p-id="1968"></path><path d="M384 864H192V160h640v224h64V160c0-35.35-28.65-64-64-64H192c-35.35 0-64 28.65-64 64v704c0 35.35 28.65 64 64 64h192v-64z" fill="#666666" p-id="1969"></path></svg>