<?xml version="1.0" standalone="no"?><!DOCTYPE svg PUBLIC "-//W3C//DTD SVG 1.1//EN" "http://www.w3.org/Graphics/SVG/1.1/DTD/svg11.dtd"><svg class="icon" width="200px" height="200.00px" viewBox="0 0 1024 1024" version="1.1" xmlns="http://www.w3.org/2000/svg"><path d="M98 284.75C98 176.16 178.594 106.806 287.094 102.172 343.866 99.748 417.8 98 513 98c95.2 0 169.134 1.748 225.906 4.172C847.406 106.806 928 176.16 928 284.75s-80.592 177.944-189.094 182.578c-56.772 2.424-130.704 4.172-225.906 4.172-95.2 0-169.134-1.748-225.906-4.172C178.594 462.694 98 393.34 98 284.75z" fill="#1677FF" /><path d="M741.25 284.75m-103.75 0a103.75 103.75 0 1 0 207.5 0 103.75 103.75 0 1 0-207.5 0Z" fill="#FFFFFF" /><path d="M928 741.25c0-108.59-80.592-177.944-189.094-182.578-56.772-2.424-130.704-4.172-225.906-4.172-95.2 0-169.134 1.748-225.906 4.172C178.594 563.306 98 632.66 98 741.25s80.594 177.944 189.094 182.578C343.866 926.252 417.8 928 513 928c95.2 0 169.134-1.748 225.906-4.172C847.406 919.194 928 849.84 928 741.25z" fill="#A871FF" /><path d="MNaNNaNmNaNNaNaNaNNaNNaN 1 0NaNNaNNaNNaNNaN 1 0NaNNaNZ" fill="#FFFFFF" /></svg>