<?xml version="1.0" standalone="no"?><!DOCTYPE svg PUBLIC "-//W3C//DTD SVG 1.1//EN" "http://www.w3.org/Graphics/SVG/1.1/DTD/svg11.dtd"><svg class="icon" width="200px" height="200.00px" viewBox="0 0 1024 1024" version="1.1" xmlns="http://www.w3.org/2000/svg"><path fill="#999999" d="M512 896c-52 0-102.4-10.4-149.6-30.4-45.6-19.2-86.4-47.2-122.4-82.4-35.2-35.2-63.2-76.8-82.4-122.4C137.6 614.4 128 564 128 512s10.4-102.4 30.4-149.6c19.2-45.6 46.4-87.2 81.6-122.4s76-63.2 122.4-82.4C409.6 137.6 460 128 512 128s102.4 10.4 149.6 30.4C707.2 177.6 748 204.8 784 240s63.2 76 82.4 122.4c20 47.2 30.4 97.6 30.4 149.6s-10.4 102.4-30.4 149.6C847.2 707.2 819.2 748 784 784s-76 63.2-122.4 82.4C614.4 885.6 564 896 512 896m448-384c0-247.2-200.8-448-448-448S64 264.8 64 512s200.8 448 448 448 448-200.8 448-448z"  /><path fill="#999999" d="M544 608V288c0-17.6-14.4-32-32-32s-32 14.4-32 32v320c0 17.6 14.4 32 32 32s32-14.4 32-32z m0 128c0-17.6-14.4-32-32-32s-32 14.4-32 32 14.4 32 32 32 32-14.4 32-32z"  /></svg>